<svg id="Capa_1" enable-background="new 0 0 602 602" height="512" viewBox="0 0 602 602" width="512" xmlns="http://www.w3.org/2000/svg"><g><circle cx="301" cy="301" fill="#e05b49" r="301"/><path d="m279.883 162.164v-52.628h-38.001v52.628h-20.788l39.788 45.996 39.789-45.996z" fill="#fcd462"/><path d="m475.486 140.623c-1.132-3.679-5.003-5.771-8.701-4.703l-71.723 20.365c-2.539.735-4.459 2.819-4.985 5.409l-10.535 50.606-242.681 15.803c-5.863.271-10.511 5.043-10.629 10.911v151.347c.129 6.164 5.217 11.063 11.382 10.958l243.34.47h1.364l24.597 23.233c4.079 6.822 1.855 15.659-4.967 19.737-2.182 1.305-4.671 2.008-7.214 2.038h-179.895v14.109h179.895c15.741-.025 28.481-12.805 28.456-28.546-.009-5.705-1.73-11.277-4.94-15.993l-25.867-24.691v-168.466c.004-.808-.09-1.614-.282-2.399v-.376l10.535-51.734 67.819-19.33c3.773-.971 6.046-4.816 5.075-8.59-.015-.052-.029-.105-.044-.158zm-335.145 141.941 24.268-1.176v25.444l-24.221.799zm237.978 17.495-31.181.941v-28.219l31.182-1.505zm-126.984 18.154v26.855l-28.595.47v-26.432zm-28.595-13.215v-26.432l28.595-1.364v26.902zm42.704 12.745 27.372-.847v27.56l-27.372.423zm0-14.109v-27.09l27.372-1.317v27.56zm41.482-29.113 26.196-1.223v28.219l-26.196.847zm71.487-17.542-31.276 1.693v-30.1l31.182-2.022zm-45.291 2.163-26.196 1.27v-29.206l26.196-1.74zm-40.305 1.928-27.372 1.317v-28.501l27.372-1.787zm-41.482 2.023-28.595 1.364v-27.795l28.595-1.881zm-42.704 2.069-29.865 1.411v-27.043l29.865-1.975zm0 14.11v26.432l-29.865.941v-25.961zm-68.196 42.328 24.174-.658v25.491l-24.221.376zm38.284-1.082 29.865-.941v26.149l-29.865.47zm29.865 39.318v27.607h-29.865v-27.137zm14.109 0 28.595-.423v28.219h-28.642zm42.704-.658 27.372-.423v29.018h-27.419zm41.482-.659 26.196-.376v29.677h-26.243zm0-14.109v-27.984l26.196-.8v28.219zm40.259-29.301 31.182-.988v29.206l-31.182.47zm-182.529-74.685v26.855l-24.221 1.129v-26.385zm-24.268 120.494 24.268-.376v26.855h-24.268zm206.938 26.714v-29.912l31.182-.47v30.429z" fill="#ebf0f3"/><circle cx="301.423" cy="458.367" fill="#3a556a" r="34.051"/><path d="m323.152 458.367c.026 12-9.681 21.749-21.681 21.775s-21.749-9.681-21.775-21.681 9.681-21.749 21.681-21.775h.047c11.981-.001 21.702 9.699 21.728 21.681z" fill="#e1e6e9"/><circle cx="208.631" cy="458.367" fill="#3a556a" r="34.051"/><path d="m230.453 458.367c.026 12-9.681 21.749-21.681 21.775s-21.749-9.681-21.775-21.681 9.681-21.749 21.681-21.775h.047c11.982-.001 21.702 9.699 21.728 21.681z" fill="#e1e6e9"/></g></svg>